<svg width="904" height="292" viewBox="0 0 904 292" fill="none" xmlns="http://www.w3.org/2000/svg">
<path d="M6.6 143C6.2 143 6 142.75 6 142.25L6.3 39.35C6.3 38.85 6.5 38.6 6.9 38.6H23.7C24.1 38.6 24.3 38.85 24.3 39.35V74.9L47.85 39.2C48.15 38.8 48.5 38.6 48.9 38.6H66.15C66.55 38.6 66.65 38.8 66.45 39.2L40.5 80.6L69.6 142.4C69.8 142.8 69.55 143 68.85 143H50.55C50.05 143 49.75 142.8 49.65 142.4L29.4 98.3L24.15 106.55V142.25C24.15 142.75 23.95 143 23.55 143H6.6ZM78.7125 142.25L97.3125 39.2C97.4125 38.8 97.6625 38.6 98.0625 38.6H119.813C120.213 38.6 120.463 38.8 120.563 39.2L138.413 142.25C138.513 142.75 138.313 143 137.813 143H121.163C120.763 143 120.513 142.75 120.413 142.25L118.763 131.3H98.3625L96.7125 142.25C96.6125 142.75 96.3625 143 95.9625 143H79.3125C78.9125 143 78.7125 142.75 78.7125 142.25ZM101.363 115.25H115.763L109.613 73.1L108.713 67.55L108.113 73.1L101.363 115.25ZM155.926 143C155.526 143 155.326 142.75 155.326 142.25L155.476 39.35C155.476 38.85 155.726 38.6 156.226 38.6H172.876C173.376 38.6 173.626 38.85 173.626 39.35L173.476 124.55H204.376C204.876 124.55 205.126 124.8 205.126 125.3V142.25C205.126 142.75 204.876 143 204.376 143H155.926ZM223.045 143C222.645 143 222.445 142.75 222.445 142.25L222.595 39.2C222.595 38.8 222.795 38.6 223.195 38.6H271.345C271.745 38.6 271.945 38.85 271.945 39.35V56.15C271.945 56.55 271.745 56.75 271.345 56.75H240.595V80.15H271.345C271.745 80.15 271.945 80.35 271.945 80.75L272.095 97.7C272.095 98.1 271.895 98.3 271.495 98.3H240.595V124.55H271.495C271.895 124.55 272.095 124.8 272.095 125.3V142.4C272.095 142.8 271.895 143 271.495 143H223.045ZM286.369 142.25L304.969 39.2C305.069 38.8 305.319 38.6 305.719 38.6H327.469C327.869 38.6 328.119 38.8 328.219 39.2L346.069 142.25C346.169 142.75 345.969 143 345.469 143H328.819C328.419 143 328.169 142.75 328.069 142.25L326.419 131.3H306.019L304.369 142.25C304.269 142.75 304.019 143 303.619 143H286.969C286.569 143 286.369 142.75 286.369 142.25ZM309.019 115.25H323.419L317.269 73.1L316.369 67.55L315.769 73.1L309.019 115.25Z" fill="#D8BAA9"/>
<path d="M366.8 247C366.4 247 366.15 246.75 366.05 246.25L345.35 143.2C345.25 142.8 345.45 142.6 345.95 142.6H362.9C363.3 142.6 363.55 142.8 363.65 143.2L375.95 211.9L387.95 143.2C388.05 142.8 388.3 142.6 388.7 142.6H405.5C406 142.6 406.2 142.8 406.1 143.2L385.7 246.25C385.6 246.75 385.35 247 384.95 247H366.8ZM423.143 247C422.643 247 422.393 246.75 422.393 246.25L422.543 143.2C422.543 142.8 422.743 142.6 423.143 142.6H439.943C440.343 142.6 440.543 142.8 440.543 143.2L440.693 246.25C440.693 246.75 440.493 247 440.093 247H423.143ZM457.337 247C456.837 247 456.587 246.75 456.587 246.25L456.737 229.9L493.487 159.7H458.687C458.287 159.7 458.087 159.5 458.087 159.1V143.35C458.087 142.85 458.287 142.6 458.687 142.6H512.987C513.487 142.6 513.737 142.85 513.737 143.35V159.55L477.137 229.45H513.287C513.687 229.45 513.887 229.7 513.887 230.2L514.037 246.25C514.037 246.75 513.787 247 513.287 247H457.337ZM531.596 247C531.196 247 530.996 246.75 530.996 246.25L531.296 143.2C531.296 142.8 531.496 142.6 531.896 142.6H550.196C550.596 142.6 550.946 142.8 551.246 143.2L564.896 163L578.546 143.2C578.846 142.8 579.196 142.6 579.596 142.6H598.046C598.446 142.6 598.646 142.8 598.646 143.2L598.946 246.25C598.946 246.75 598.746 247 598.346 247H581.396C580.996 247 580.796 246.75 580.796 246.25L580.646 169.75L564.896 192.55L549.296 169.75L549.146 246.25C549.146 246.75 548.946 247 548.546 247H531.596ZM613.963 246.25L632.563 143.2C632.663 142.8 632.913 142.6 633.313 142.6H655.063C655.463 142.6 655.713 142.8 655.813 143.2L673.663 246.25C673.763 246.75 673.563 247 673.063 247H656.413C656.013 247 655.763 246.75 655.663 246.25L654.013 235.3H633.613L631.963 246.25C631.863 246.75 631.613 247 631.213 247H614.563C614.163 247 613.963 246.75 613.963 246.25ZM636.613 219.25H651.013L644.863 177.1L643.963 171.55L643.363 177.1L636.613 219.25ZM691.926 247C691.126 247 690.726 246.65 690.726 245.95L690.576 143.8C690.576 143 690.976 142.6 691.776 142.6H705.276L730.626 201.7L729.876 143.8C729.876 143 730.326 142.6 731.226 142.6H746.076C746.676 142.6 746.976 143 746.976 143.8L747.126 246.1C747.126 246.7 746.876 247 746.376 247H733.176L707.226 191.8L708.276 245.8C708.276 246.6 707.826 247 706.926 247H691.926ZM795.406 248.5C790.006 248.5 785.056 247.15 780.556 244.45C776.156 241.65 772.606 238 769.906 233.5C767.206 228.9 765.856 223.85 765.856 218.35L766.006 170.8C766.006 165.3 767.306 160.3 769.906 155.8C772.606 151.3 776.206 147.7 780.706 145C785.206 142.3 790.106 140.95 795.406 140.95C800.806 140.95 805.706 142.3 810.106 145C814.506 147.7 818.006 151.3 820.606 155.8C823.306 160.3 824.656 165.3 824.656 170.8L824.806 218.35C824.806 223.85 823.456 228.9 820.756 233.5C818.156 238 814.606 241.65 810.106 244.45C805.706 247.15 800.806 248.5 795.406 248.5ZM795.406 230.35C798.406 230.35 801.006 229.15 803.206 226.75C805.506 224.25 806.656 221.45 806.656 218.35L806.506 170.8C806.506 167.5 805.456 164.7 803.356 162.4C801.256 160.1 798.606 158.95 795.406 158.95C792.306 158.95 789.656 160.1 787.456 162.4C785.256 164.6 784.156 167.4 784.156 170.8V218.35C784.156 221.65 785.256 224.5 787.456 226.9C789.656 229.2 792.306 230.35 795.406 230.35ZM869.211 248.5C863.811 248.5 858.861 247.15 854.361 244.45C849.961 241.65 846.411 238 843.711 233.5C841.111 228.9 839.811 223.85 839.811 218.35V211.45C839.811 210.95 840.061 210.7 840.561 210.7H857.361C857.761 210.7 857.961 210.95 857.961 211.45V218.35C857.961 221.65 859.061 224.5 861.261 226.9C863.461 229.2 866.111 230.35 869.211 230.35C872.311 230.35 874.961 229.15 877.161 226.75C879.361 224.35 880.461 221.55 880.461 218.35C880.461 214.65 878.061 211.45 873.261 208.75C871.661 207.85 869.161 206.45 865.761 204.55C862.361 202.65 859.161 200.85 856.161 199.15C850.661 195.95 846.561 191.95 843.861 187.15C841.261 182.25 839.961 176.75 839.961 170.65C839.961 165.05 841.311 160.05 844.011 155.65C846.711 151.15 850.261 147.6 854.661 145C859.161 142.4 864.011 141.1 869.211 141.1C874.511 141.1 879.361 142.45 883.761 145.15C888.261 147.75 891.811 151.3 894.411 155.8C897.111 160.2 898.461 165.15 898.461 170.65V182.95C898.461 183.35 898.261 183.55 897.861 183.55H881.061C880.661 183.55 880.461 183.35 880.461 182.95L880.311 170.65C880.311 167.15 879.211 164.3 877.011 162.1C874.811 159.9 872.211 158.8 869.211 158.8C866.111 158.8 863.461 160 861.261 162.4C859.061 164.7 857.961 167.45 857.961 170.65C857.961 173.95 858.661 176.7 860.061 178.9C861.461 181.1 864.011 183.2 867.711 185.2C868.211 185.5 869.161 186.05 870.561 186.85C872.061 187.55 873.661 188.4 875.361 189.4C877.061 190.3 878.561 191.1 879.861 191.8C881.261 192.5 882.111 192.95 882.411 193.15C887.411 195.95 891.361 199.4 894.261 203.5C897.161 207.5 898.611 212.45 898.611 218.35C898.611 224.05 897.261 229.2 894.561 233.8C891.961 238.3 888.411 241.9 883.911 244.6C879.511 247.2 874.611 248.5 869.211 248.5Z" fill="#D8BAA9"/>
</svg>
